# xmcd
#
# Track frame offsets:
#  150
#  17350
#  31346
#  39899
#  57746
#  70454
#  84300
#  95506
#  108224
#  120792
#  133833
#  144467
#  158901
#  173185
#  185506
#  198973
#
# Disc length: 2810 seconds
#
# Revision: 0
# Processed by: cddbd v1.5.2PL0 Copyright (c) Steve Scherf et al.
# Submitted via: AltoMP3_Maker 3.0
#
DISCID=cf0af810
DTITLE=Various Artist - Country Classics Vol11
DYEAR=1900
DGENRE=
TTITLE0=I've Never Been To Me Me
TTITLE1=India Love Call
TTITLE2=There's A New Moon Over My Shoulder
TTITLE3=Something's Burning
TTITLE4=Cheatin's A Sin
TTITLE5=Home Motel
TTITLE6=Forever Is Too Long To Be Alone
TTITLE7=Top Of The World
TTITLE8=One Heart, One Love, One Life
TTITLE9=Blues Waltz
TTITLE10=Texarkana Baby
TTITLE11=Blue Prairie
TTITLE12=Don't Talk Of Love
TTITLE13=Slipping Around
TTITLE14=I Forgot More Than You'll Ever Know
TTITLE15=No Vacancy
EXTD=
EXTT0=
EXTT1=
EXTT2=
EXTT3=
EXTT4=
EXTT5=
EXTT6=
EXTT7=
EXTT8=
EXTT9=
EXTT10=
EXTT11=
EXTT12=
EXTT13=
EXTT14=
EXTT15=
PLAYORDER=
